<svg xmlns="http://www.w3.org/2000/svg" width="1400" height="760" viewBox="0 0 1400 760" role="img" aria-labelledby="title desc">
  <title id="title">XLSForm AI Translator running inside Microsoft Excel</title>
  <desc id="desc">Illustration of an Excel workbook with translated cells and the XLSForm AI Translator task pane.</desc>
  <defs>
    <linearGradient id="pane" x1="0" y1="0" x2="0" y2="1">
      <stop offset="0" stop-color="#f8fafc"/>
      <stop offset="1" stop-color="#eef2f5"/>
    </linearGradient>
    <filter id="shadow" x="-20%" y="-20%" width="140%" height="140%">
      <feDropShadow dx="0" dy="5" stdDeviation="8" flood-color="#0f172a" flood-opacity="0.16"/>
    </filter>
  </defs>
  <rect width="1400" height="760" rx="20" fill="#111827"/>
  <rect y="42" width="1400" height="84" fill="#171b24"/>
  <rect y="126" width="1400" height="634" fill="#ffffff"/>
  <text x="22" y="28" fill="#f8fafc" font-family="Segoe UI,Arial,sans-serif" font-size="15">File</text>
  <text x="72" y="28" fill="#ffffff" font-family="Segoe UI,Arial,sans-serif" font-size="15" font-weight="700">Home</text>
  <text x="132" y="28" fill="#d1d5db" font-family="Segoe UI,Arial,sans-serif" font-size="15">Insert</text>
  <text x="190" y="28" fill="#d1d5db" font-family="Segoe UI,Arial,sans-serif" font-size="15">Draw</text>
  <text x="242" y="28" fill="#d1d5db" font-family="Segoe UI,Arial,sans-serif" font-size="15">Page Layout</text>
  <text x="340" y="28" fill="#d1d5db" font-family="Segoe UI,Arial,sans-serif" font-size="15">Formulas</text>
  <text x="413" y="28" fill="#d1d5db" font-family="Segoe UI,Arial,sans-serif" font-size="15">Data</text>
  <text x="462" y="28" fill="#d1d5db" font-family="Segoe UI,Arial,sans-serif" font-size="15">Review</text>
  <text x="526" y="28" fill="#d1d5db" font-family="Segoe UI,Arial,sans-serif" font-size="15">View</text>
  <rect x="28" y="58" width="52" height="50" rx="7" fill="#0f6b55"/>
  <text x="44" y="89" fill="#ffffff" font-family="Segoe UI,Arial,sans-serif" font-size="22" font-weight="700">X</text>
  <rect x="100" y="60" width="170" height="20" rx="4" fill="#2c3340"/>
  <rect x="100" y="87" width="128" height="13" rx="3" fill="#3b4352"/>
  <rect x="286" y="60" width="75" height="40" rx="4" fill="#2c3340"/>
  <rect x="375" y="60" width="75" height="40" rx="4" fill="#2c3340"/>
  <rect x="464" y="60" width="75" height="40" rx="4" fill="#2c3340"/>
  <rect x="553" y="60" width="75" height="40" rx="4" fill="#2c3340"/>
  <rect x="642" y="60" width="75" height="40" rx="4" fill="#2c3340"/>

  <g transform="translate(0 126)">
    <rect width="1000" height="634" fill="#ffffff"/>
    <rect width="1000" height="36" fill="#f3f4f6"/>
    <rect width="38" height="634" fill="#f3f4f6"/>
    <g stroke="#d9dde3" stroke-width="1">
      <path d="M38 36H1000M38 82H1000M38 128H1000M38 174H1000M38 220H1000M38 266H1000M38 312H1000M38 358H1000M38 404H1000M38 450H1000M38 496H1000M38 542H1000M38 588H1000"/>
      <path d="M38 0V634M500 0V634"/>
    </g>
    <text x="264" y="24" text-anchor="middle" fill="#334155" font-family="Segoe UI,Arial,sans-serif" font-size="14">A</text>
    <text x="750" y="24" text-anchor="middle" fill="#334155" font-family="Segoe UI,Arial,sans-serif" font-size="14">B</text>
    <text x="19" y="65" text-anchor="middle" fill="#475569" font-family="Segoe UI,Arial,sans-serif" font-size="13">1</text>
    <rect x="38" y="36" width="462" height="46" fill="none" stroke="#1b7f5d" stroke-width="3"/>
    <text x="50" y="68" fill="#111827" font-family="Segoe UI,Arial,sans-serif" font-size="28">Incrível que está a funcionar.</text>
    <text x="516" y="68" fill="#111827" font-family="Segoe UI,Arial,sans-serif" font-size="28" font-weight="700">It’s amazing that it’s working.</text>
  </g>

  <g transform="translate(1000 126)">
    <rect width="400" height="634" fill="url(#pane)"/>
    <rect width="400" height="38" fill="#1f2937"/>
    <text x="18" y="25" fill="#ffffff" font-family="Segoe UI,Arial,sans-serif" font-size="16">XLSForm AI Translator</text>
    <text x="375" y="25" text-anchor="middle" fill="#d1d5db" font-family="Segoe UI,Arial,sans-serif" font-size="22">×</text>
    <rect x="18" y="54" width="364" height="72" rx="14" fill="#ffffff" filter="url(#shadow)"/>
    <rect x="32" y="72" width="38" height="38" rx="10" fill="#177267"/>
    <text x="51" y="97" text-anchor="middle" fill="#ffffff" font-family="Segoe UI,Arial,sans-serif" font-size="13" font-weight="700">XT</text>
    <text x="82" y="82" fill="#0f172a" font-family="Segoe UI,Arial,sans-serif" font-size="19" font-weight="700">XLSForm AI Translator</text>
    <text x="82" y="104" fill="#64748b" font-family="Segoe UI,Arial,sans-serif" font-size="13">Translate labels and hints without changing form logic.</text>

    <rect x="18" y="140" width="364" height="235" rx="14" fill="#ffffff" stroke="#d8e0e7"/>
    <text x="34" y="168" fill="#0f172a" font-family="Segoe UI,Arial,sans-serif" font-size="16" font-weight="700">Languages</text>
    <text x="34" y="194" fill="#475569" font-family="Segoe UI,Arial,sans-serif" font-size="12">Source</text>
    <rect x="34" y="204" width="332" height="38" rx="8" fill="#ffffff" stroke="#cbd5e1"/>
    <text x="48" y="229" fill="#0f172a" font-family="Segoe UI,Arial,sans-serif" font-size="13">Portuguese</text>
    <text x="344" y="229" fill="#475569" font-family="Segoe UI,Arial,sans-serif" font-size="13">⌄</text>
    <text x="34" y="264" fill="#475569" font-family="Segoe UI,Arial,sans-serif" font-size="12">Target</text>
    <rect x="34" y="274" width="332" height="38" rx="8" fill="#ffffff" stroke="#cbd5e1"/>
    <text x="48" y="299" fill="#0f172a" font-family="Segoe UI,Arial,sans-serif" font-size="13">English</text>
    <text x="344" y="299" fill="#475569" font-family="Segoe UI,Arial,sans-serif" font-size="13">⌄</text>
    <text x="34" y="334" fill="#475569" font-family="Segoe UI,Arial,sans-serif" font-size="12">Provider</text>
    <rect x="116" y="320" width="250" height="38" rx="8" fill="#ffffff" stroke="#cbd5e1"/>
    <text x="130" y="345" fill="#0f172a" font-family="Segoe UI,Arial,sans-serif" font-size="13">DeepL</text>

    <rect x="18" y="389" width="364" height="132" rx="14" fill="#ffffff" stroke="#d8e0e7"/>
    <text x="34" y="417" fill="#0f172a" font-family="Segoe UI,Arial,sans-serif" font-size="16" font-weight="700">XLSForm options</text>
    <rect x="34" y="438" width="14" height="14" rx="3" fill="#177267"/>
    <text x="38" y="450" fill="#ffffff" font-family="Segoe UI,Arial,sans-serif" font-size="11">✓</text>
    <text x="57" y="450" fill="#334155" font-family="Segoe UI,Arial,sans-serif" font-size="13">survey</text>
    <rect x="126" y="438" width="14" height="14" rx="3" fill="#177267"/>
    <text x="130" y="450" fill="#ffffff" font-family="Segoe UI,Arial,sans-serif" font-size="11">✓</text>
    <text x="149" y="450" fill="#334155" font-family="Segoe UI,Arial,sans-serif" font-size="13">choices</text>
    <rect x="214" y="438" width="14" height="14" rx="3" fill="#ffffff" stroke="#94a3b8"/>
    <text x="237" y="450" fill="#334155" font-family="Segoe UI,Arial,sans-serif" font-size="13">settings</text>
    <rect x="34" y="475" width="14" height="14" rx="3" fill="#177267"/>
    <text x="38" y="487" fill="#ffffff" font-family="Segoe UI,Arial,sans-serif" font-size="11">✓</text>
    <text x="57" y="487" fill="#334155" font-family="Segoe UI,Arial,sans-serif" font-size="13">Use humanitarian glossary</text>

    <rect x="18" y="537" width="174" height="46" rx="10" fill="#dcefeb"/>
    <text x="105" y="566" text-anchor="middle" fill="#0f5f56" font-family="Segoe UI,Arial,sans-serif" font-size="14" font-weight="700">Translate selection</text>
    <rect x="208" y="537" width="174" height="46" rx="10" fill="#177267"/>
    <text x="295" y="566" text-anchor="middle" fill="#ffffff" font-family="Segoe UI,Arial,sans-serif" font-size="14" font-weight="700">Translate XLSForm</text>
    <rect x="18" y="593" width="364" height="32" rx="8" fill="#e5eaee"/>
    <text x="200" y="615" text-anchor="middle" fill="#334155" font-family="Segoe UI,Arial,sans-serif" font-size="13" font-weight="700">Analyse structure</text>
  </g>
</svg>
